<?xml version="1.0" encoding="UTF-8" standalone="no"?>
<!-- Created with Inkscape (http://www.inkscape.org/) -->

<svg
   xmlns:dc="http://purl.org/dc/elements/1.1/"
   xmlns:cc="http://creativecommons.org/ns#"
   xmlns:rdf="http://www.w3.org/1999/02/22-rdf-syntax-ns#"
   xmlns:svg="http://www.w3.org/2000/svg"
   xmlns="http://www.w3.org/2000/svg"
   xmlns:sodipodi="http://sodipodi.sourceforge.net/DTD/sodipodi-0.dtd"
   xmlns:inkscape="http://www.inkscape.org/namespaces/inkscape"
   width="170.23399mm"
   height="25.0952mm"
   viewBox="0 0 170.23399 25.0952"
   version="1.1"
   id="svg8"
   inkscape:version="0.92.2 2405546, 2018-03-11"
   sodipodi:docname="logo.svg">
  <defs
     id="defs2" />
  <sodipodi:namedview
     id="base"
     pagecolor="#ffffff"
     bordercolor="#666666"
     borderopacity="1.0"
     inkscape:pageopacity="0.0"
     inkscape:pageshadow="2"
     inkscape:zoom="1.979899"
     inkscape:cx="325.55358"
     inkscape:cy="-16.162995"
     inkscape:document-units="mm"
     inkscape:current-layer="g933"
     showgrid="false"
     inkscape:snap-object-midpoints="true"
     fit-margin-top="0"
     fit-margin-left="0"
     fit-margin-right="0"
     fit-margin-bottom="0"
     inkscape:window-width="3840"
     inkscape:window-height="2095"
     inkscape:window-x="0"
     inkscape:window-y="32"
     inkscape:window-maximized="1" />
  <metadata
     id="metadata5">
    <rdf:RDF>
      <cc:Work
         rdf:about="">
        <dc:format>image/svg+xml</dc:format>
        <dc:type
           rdf:resource="http://purl.org/dc/dcmitype/StillImage" />
        <dc:title></dc:title>
      </cc:Work>
    </rdf:RDF>
  </metadata>
  <g
     inkscape:label="Layer 1"
     inkscape:groupmode="layer"
     id="layer1"
     transform="translate(-7.4866088,-4.0202042)">
    <g
       id="g933"
       transform="matrix(0.86621679,0,0,0.86621679,-23.823873,-13.594354)">
      <path
         inkscape:connector-curvature="0"
         id="path896-1"
         d="M 39.24651,45.039102 53.51846,29.629092"
         style="opacity:1;vector-effect:none;fill:none;fill-opacity:1;stroke:#000000;stroke-width:0.80811179;stroke-linecap:butt;stroke-linejoin:miter;stroke-miterlimit:4;stroke-dasharray:none;stroke-dashoffset:0;stroke-opacity:1" />
      <path
         sodipodi:nodetypes="cc"
         inkscape:connector-curvature="0"
         id="path892"
         d="M 39.101637,24.030318 53.51846,29.629092"
         style="fill:none;stroke:#000000;stroke-width:0.80811179;stroke-linecap:butt;stroke-linejoin:miter;stroke-miterlimit:4;stroke-dasharray:none;stroke-opacity:1" />
      <path
         inkscape:connector-curvature="0"
         id="path894"
         d="M 39.101636,34.849881 53.51846,29.629092"
         style="fill:none;stroke:#000000;stroke-width:0.80811179;stroke-linecap:butt;stroke-linejoin:miter;stroke-miterlimit:4;stroke-dasharray:none;stroke-opacity:1" />
      <path
         inkscape:connector-curvature="0"
         id="path896"
         d="M 39.101636,45.669457 53.553089,40.306918"
         style="opacity:1;vector-effect:none;fill:none;fill-opacity:1;stroke:#000000;stroke-width:0.80811179;stroke-linecap:butt;stroke-linejoin:miter;stroke-miterlimit:4;stroke-dasharray:none;stroke-dashoffset:0;stroke-opacity:1" />
      <path
         inkscape:connector-curvature="0"
         id="path898"
         d="M 53.51846,29.629092 67.865623,24.030318"
         style="fill:none;stroke:#000000;stroke-width:0.80811179;stroke-linecap:butt;stroke-linejoin:miter;stroke-miterlimit:4;stroke-dasharray:none;stroke-opacity:1" />
      <path
         inkscape:connector-curvature="0"
         id="path900"
         d="m 53.483629,29.4401 14.381994,5.409781"
         style="fill:none;stroke:#000000;stroke-width:0.80811179;stroke-linecap:butt;stroke-linejoin:miter;stroke-miterlimit:4;stroke-dasharray:none;stroke-opacity:1" />
      <path
         inkscape:connector-curvature="0"
         id="path906"
         d="m 53.553089,40.306918 14.312532,5.362538"
         style="fill:none;stroke:#000000;stroke-width:0.80811179;stroke-linecap:butt;stroke-linejoin:miter;stroke-miterlimit:4;stroke-dasharray:none;stroke-opacity:1" />
      <path
         inkscape:connector-curvature="0"
         id="path910"
         d="m 39.101635,24.030318 14.451454,16.2766"
         style="fill:none;stroke:#000000;stroke-width:0.80811179;stroke-linecap:butt;stroke-linejoin:miter;stroke-miterlimit:4;stroke-dasharray:none;stroke-opacity:1" />
      <path
         inkscape:connector-curvature="0"
         id="path912"
         d="M 67.865623,34.849881 53.553089,40.306918"
         style="fill:none;stroke:#000000;stroke-width:0.80811179;stroke-linecap:butt;stroke-linejoin:miter;stroke-miterlimit:4;stroke-dasharray:none;stroke-opacity:1" />
      <path
         inkscape:connector-curvature="0"
         id="path817"
         d="m 41.652976,24.030319 c 0,1.409066 -1.142274,2.551339 -2.551339,2.551339 -1.409066,0 -2.551339,-1.142273 -2.551339,-2.551339 0,-1.409066 1.142273,-2.55134 2.551339,-2.55134 1.409066,0 2.551339,1.142274 2.551339,2.55134 z"
         style="opacity:1;fill:#1c9099;fill-opacity:1;fill-rule:nonzero;stroke:#000000;stroke-width:0.80811179;stroke-miterlimit:4;stroke-dasharray:none;stroke-opacity:1"
         sodipodi:nodetypes="sssss" />
      <path
         inkscape:connector-curvature="0"
         id="path817-3"
         d="m 41.652976,34.849882 a 2.5513394,2.5513394 0 0 1 -2.551339,2.551339 2.5513394,2.5513394 0 0 1 -2.551339,-2.551339 2.5513394,2.5513394 0 0 1 2.551339,-2.55134 2.5513394,2.5513394 0 0 1 2.551339,2.55134 z"
         style="opacity:1;fill:#1c9099;fill-opacity:1;fill-rule:nonzero;stroke:#000000;stroke-width:0.80811179;stroke-miterlimit:4;stroke-dasharray:none;stroke-opacity:1" />
      <path
         inkscape:connector-curvature="0"
         id="path817-6"
         d="m 41.652976,45.669458 a 2.5513394,2.5513394 0 0 1 -2.551339,2.551339 2.5513394,2.5513394 0 0 1 -2.551339,-2.551339 2.5513394,2.5513394 0 0 1 2.551339,-2.551341 2.5513394,2.5513394 0 0 1 2.551339,2.551341 z"
         style="opacity:1;fill:#1c9099;fill-opacity:1;fill-rule:nonzero;stroke:#000000;stroke-width:0.80811179;stroke-miterlimit:4;stroke-dasharray:none;stroke-opacity:1" />
      <path
         inkscape:connector-curvature="0"
         id="path817-3-7"
         d="M 56.034968,29.4401 A 2.5513394,2.5513394 0 0 1 53.483629,31.991439 2.5513394,2.5513394 0 0 1 50.93229,29.4401 2.5513394,2.5513394 0 0 1 53.483629,26.88876 2.5513394,2.5513394 0 0 1 56.034968,29.4401 Z"
         style="opacity:1;fill:#1c9099;fill-opacity:1;fill-rule:nonzero;stroke:#000000;stroke-width:0.80811179;stroke-miterlimit:4;stroke-dasharray:none;stroke-opacity:1" />
      <path
         inkscape:connector-curvature="0"
         id="path817-6-5"
         d="m 56.034968,40.259676 a 2.5513394,2.5513394 0 0 1 -2.551339,2.551339 2.5513394,2.5513394 0 0 1 -2.551339,-2.551339 2.5513394,2.5513394 0 0 1 2.551339,-2.551341 2.5513394,2.5513394 0 0 1 2.551339,2.551341 z"
         style="opacity:1;fill:#1c9099;fill-opacity:1;fill-rule:nonzero;stroke:#000000;stroke-width:0.80811179;stroke-miterlimit:4;stroke-dasharray:none;stroke-opacity:1" />
      <path
         inkscape:connector-curvature="0"
         id="path817-5"
         d="m 70.416962,24.030319 a 2.5513394,2.5513394 0 0 1 -2.551339,2.551339 2.5513394,2.5513394 0 0 1 -2.551339,-2.551339 2.5513394,2.5513394 0 0 1 2.551339,-2.55134 2.5513394,2.5513394 0 0 1 2.551339,2.55134 z"
         style="opacity:1;fill:#1c9099;fill-opacity:1;fill-rule:nonzero;stroke:#000000;stroke-width:0.80811179;stroke-miterlimit:4;stroke-dasharray:none;stroke-opacity:1" />
      <path
         inkscape:connector-curvature="0"
         id="path817-3-6"
         d="m 70.416962,34.849882 a 2.5513394,2.5513394 0 0 1 -2.551339,2.551339 2.5513394,2.5513394 0 0 1 -2.551339,-2.551339 2.5513394,2.5513394 0 0 1 2.551339,-2.55134 2.5513394,2.5513394 0 0 1 2.551339,2.55134 z"
         style="opacity:1;fill:#1c9099;fill-opacity:1;fill-rule:nonzero;stroke:#000000;stroke-width:0.80811179;stroke-miterlimit:4;stroke-dasharray:none;stroke-opacity:1" />
      <path
         inkscape:connector-curvature="0"
         id="path817-6-2"
         d="m 70.416962,45.669458 a 2.5513394,2.5513394 0 0 1 -2.551339,2.551339 2.5513394,2.5513394 0 0 1 -2.551339,-2.551339 2.5513394,2.5513394 0 0 1 2.551339,-2.551341 2.5513394,2.5513394 0 0 1 2.551339,2.551341 z"
         style="opacity:1;fill:#1c9099;fill-opacity:1;fill-rule:nonzero;stroke:#000000;stroke-width:0.80811179;stroke-miterlimit:4;stroke-dasharray:none;stroke-opacity:1" />
    </g>
    <text
       xml:space="preserve"
       style="font-style:normal;font-variant:normal;font-weight:normal;font-stretch:normal;font-size:50.79999924px;line-height:0.5;font-family:'Source Code Pro';-inkscape-font-specification:'Source Code Pro';letter-spacing:0px;word-spacing:0px;fill:#000000;fill-opacity:1;stroke:none;stroke-width:0.26458332"
       x="40.632442"
       y="22.790804"
       id="text937"><tspan
         sodipodi:role="line"
         id="tspan935"
         x="40.632442"
         y="22.790804"
         style="font-style:normal;font-variant:normal;font-weight:normal;font-stretch:normal;font-size:25.39999962px;line-height:0.5;font-family:'Source Serif Pro';-inkscape-font-specification:'Source Serif Pro';stroke-width:0.26458332">cryptagraph</tspan></text>
  </g>
</svg>
